<?xml version="1.0" encoding="utf-8"?>
<!DOCTYPE svg PUBLIC "-//W3C//DTD SVG 1.1//EN" "http://www.w3.org/Graphics/SVG/1.1/DTD/svg11.dtd">
<?xml-stylesheet type="text/css" href="svg-style.css"?>


<svg version="1.1" xmlns="http://www.w3.org/2000/svg" xmlns:xlink="http://www.w3.org/1999/xlink" x="0px" y="0px"
	 width="764.962px" height="452.978px" viewBox="0 0 764.962 452.978" enable-background="new 0 0 764.962 452.978"
	 xml:space="preserve">

	 <script type="application/ecmascript"> <![CDATA[
    function circle_click(evt) {
      var circle = evt.target;
      console.log(circle);
      
    }
  ]]> </script>

<g id="Layer_1" display="none">
	
		
	<path display="inline" fill="none" d="M150.952,131.719"/>
</g>
<g id="Layer_2">
	<polyline id="zone_1" onclick="circle_click(evt)" fill="none" stroke="#000000" stroke-miterlimit="1" points="97.388,45.565 100.054,45.565 102.721,48.565 
		104.388,53.565 107.054,58.565 107.054,62.565 102.221,66.232 100.388,72.232 103.721,79.232 105.513,89.148 103.721,92.232 
		93.388,95.232 85.388,97.898 80.721,99.232 77.388,102.565 78.721,108.898 77.388,113.565 77.388,115.898 83.388,117.898 
		88.721,123.898 85.054,127.898 77.388,132.565 75.054,139.565 72.388,146.232 65.388,150.232 59.388,156.232 55.388,164.565 
		53.388,176.232 55.388,187.898 58.054,196.898 57.388,201.232 53.388,203.232 53.388,212.898 47.388,209.565 43.054,207.232 
		37.721,206.898 33.721,198.898 27.721,195.232 22.054,193.898 16.721,187.898 11.721,186.232 11.721,176.232 18.054,171.565 
		18.721,160.232 20.388,157.232 25.054,156.232 28.054,156.232 29.721,153.898 27.721,149.898 28.054,146.565 33.388,146.232 
		34.054,142.898 34.054,136.565 30.721,133.898 29.721,129.231 27.388,124.898 30.054,120.898 33.721,119.232 35.054,115.232 
		38.721,110.898 42.388,107.898 43.721,102.232 41.054,96.232 40.721,91.898 43.054,87.232 49.721,87.232 53.054,84.565 
		56.721,76.898 59.388,70.565 66.388,68.898 71.054,65.898 76.054,59.565 80.054,54.898 85.388,52.232 85.054,47.898 87.721,43.232 
		89.721,43.232 92.721,46.232 95.721,45.232 	"/>
</g>
<g id="Layer_5">
	<path id="zone_2" onclick="circle_click(evt)" fill="none" stroke="#020202" stroke-miterlimit="1" d="M54.388,167.898l-1.5,2.5l0.75,3.333l0.75,4.167c0,0-1,3.333-0.75,4
		s0,4,0,4l2.417,2.667v2l1,3v4.667v3l2.167,1.333v3.5l5.167,1.5c0,0,2.5,0.667,3,0.833s2.167,3.833,2.167,3.833s1.667,1.5,2.5,1.667
		s3.167,0,3.167,0l2.833,4.667l4,2.413h4.5l1.833,0.921l1.333,4.59l8,0.91l1.667,2.167l1.833,2.333l3.333,0.833v-4l2.833-4.167
		l3.667-2.333l6.667-7.333l6.167-6.667l2.333-5l-0.833-3.667l-1.667-3.167l-1.167-3l-1.667-3.833l-0.667-3.833l-1.667-1.167
		l-1.667,1.667l-2.5-0.167l-1.667-2.833l-2.167-0.333l-2.167,1l-2.667-1.5l-3-2.833l-3.333-4l2.833-2.833l2.833-1.333l4.333,1.667
		l4.333,2.333l4,2.833c0,0,5.667-0.167,7.167-0.167s4.5,1.167,4.5,1.167l3,0.833l5.667-1h2.5l2.333,3.333l4,5.667v4l1.333,3
		l3.167-1.167l1.5-1.5l-1.667-1.833l-0.833-1.333l-0.667-2.833l-1.667-3.333l-7.333-8.833l-2.833-3l-0.667-3.333l2.5-4.167l7-5.333
		l3-2.667l-2.167-2.167l-3-2.5l-0.5-5l-0.167-4.667l0.5-6l4.167-2.833l3.5-0.846h4.833l2.5,1.179l3.333,1.167l3.833-1.5v-3.5
		l-2.167-3.333l0.833-5l1.333-3.833l4.667-2.167l1.167-7.833l-1.833-1.667l-2.667-0.667l-2.5-1.833l-1.167-4.333l1-4.333l1.5-7.5
		l0.667-4.5l3.167-3l-0.167-4l-2.833-1.667l-4.333-1.5l-4-0.833h-7.667l-4.333,2.833l-1.667,2.5l-3.333-2l-0.167-5.667l-2.333-3.667
		l-1.5-2.333h-4.167l-3.333-1.5l-4-2.333h-3.667l-2.667,2.5l-1.333,3.167l-3.167-0.5l-3.25-0.833l-3.417,0.333l-3.333,0.167
		l-2.333,2.5l-3.333,4.667l2,4.5l1.5,4.667l0.667,3.833l-0.167,7.333l-4.667,2l-4,1.5l-5.167,1.167l-6,2.833l-4.5,0.833l-2,1.833
		l-0.5,2.667l1,4.833l-1.667,3.667l-0.167,3l4.167,0.667l3,2.167l3.667,4l2.667,2.333l-1.667,1.333l-2.833,2.167l-3.333,1.5
		l-3.5,1.987l-1.333,3.013l-1.333,3.5l-1,2.167l-0.5,3.667l-2,1.75l-1.5,2.583l-3.5,1.5l-4.167,2.167l-4,5.167l-2.333,5.5l-1.5,2
		L54.388,167.898z"/>
</g>
<g id="Layer_4">
	<polygon id="zone_3" fill="none" stroke="#1A1A1A" stroke-miterlimit="1" points="124.388,58.398 124.388,52.148 128.888,52.148 
		130.888,48.898 132.888,44.148 134.638,39.898 134.638,35.648 134.638,32.148 134.638,29.148 135.888,25.898 139.138,25.898 
		142.388,29.898 146.138,30.398 148.638,25.898 153.138,22.898 158.888,22.898 166.638,25.898 173.638,28.148 181.138,27.648 
		186.138,28.898 189.638,31.148 195.888,29.898 199.388,31.148 199.388,37.398 199.388,43.398 204.638,45.148 206.388,47.148 
		206.388,49.898 204.138,55.148 206.388,58.398 210.888,58.398 214.388,60.648 219.638,62.148 222.888,62.148 226.888,65.398 
		231.388,67.648 237.138,71.398 243.388,74.148 246.388,78.898 250.638,82.648 254.638,82.648 257.138,90.398 263.388,95.148 
		268.638,99.648 272.138,99.648 274.638,98.398 277.888,99.648 282.638,101.148 285.888,105.148 288.888,108.148 291.638,108.148 
		291.638,104.898 295.888,104.148 299.888,104.648 302.388,108.148 306.888,110.898 306.888,116.648 306.888,118.648 
		311.138,118.648 315.888,120.898 317.138,125.648 320.138,130.898 322.888,136.148 327.888,139.148 330.388,143.898 
		332.638,150.398 338.138,151.648 342.388,151.648 344.138,153.648 344.138,156.898 341.138,160.398 340.388,165.148 
		340.388,169.148 337.638,173.148 333.638,177.648 331.388,182.898 328.888,190.398 324.138,193.398 317.138,196.148 
		309.138,198.148 302.638,198.148 297.138,196.398 289.888,193.648 285.138,190.398 279.388,187.898 274.138,187.648 
		265.638,187.398 260.388,186.898 256.638,183.648 255.638,178.648 250.638,172.648 243.888,170.148 238.388,168.148 
		232.888,168.898 228.888,167.398 228.888,162.148 226.888,158.398 218.388,157.648 211.138,158.898 207.138,161.898 
		203.138,166.398 199.888,169.898 197.888,171.398 195.388,169.898 193.888,167.648 189.138,169.148 184.638,171.148 
		177.388,170.148 170.388,167.898 164.638,166.398 157.638,164.148 152.888,162.148 151.888,156.898 148.138,153.898 
		145.388,151.898 143.888,143.898 143.888,138.898 144.888,134.648 149.888,131.148 155.138,130.648 159.388,132.898 
		164.638,133.398 166.888,131.648 165.138,126.398 164.138,120.898 166.638,116.398 170.138,113.648 172.138,108.648 
		170.388,105.148 167.388,103.648 163.638,99.648 166.388,89.398 167.138,81.898 170.888,78.148 170.888,73.898 167.138,72.898 
		162.638,71.648 150.388,71.148 145.638,75.148 141.888,73.648 140.888,68.648 139.638,64.648 138.638,61.648 131.138,61.398 	"/>
</g>
<g id="Layer_6">
	<path id="zone_4" fill="none" stroke="#020202" stroke-miterlimit="1" d="M150.952,156.231l-5.23,2.333l-4.667,4l-3.333,3.667v5l4.667,5.333
		l5.333,7.333l3.23,4.667v5.667h-2.897l-1.333-5l-2.385-5l-4.949-5l-5,0.333l-5.333-1.333l-5-1.333l-5.333,1.667l-5-3.333l-5-2.667
		l-3.667-0.667l-4.667,1.667v3l3.667,4.333l5.333,3l4.667-0.667l0.583,3.167l1.75,0.5c0,0,2-2.75,2.375-2.5s1.75,2.75,1.75,2.75
		l0.75,3.375l1.25,3.708l2.375,4.042l0.782,2.875l-0.532,4.5l-2.375,2.875l-4.625,6.25l-11.75,10.5l-1.875,3.375v3.5l5.875,1
		l5.375,2.375l2.125,3.875l2,5.875l3,4.375l2.782,4.125c0,0,0.718,1.75,0.843,2.625s2.125,2.625,2.125,2.625s1.625,0.625,2,0
		s1.625-3.125,1.625-3.125l3.375,0.125c0,0,3.625,2.5,4,2.75s2.375,5.75,3.125,6.125s6,3.375,6,3.375l6,4l6.375,3.25l5.875,4
		l5.25,4.375l6.5,3.75c0,0,3.625-0.25,4,0s1.875-2,2.25-2.125s3.25-3.125,3.25-3.125s4-0.625,4.375-0.5s3.375,0.375,3.75,0.375
		s2.375-2.75,2.375-2.75l2.75-1c0,0,3.375-0.125,3.75-0.125s2.75-2.125,2.75-2.125v-6.625l-4.875-5.375l-2.625-0.625l-1.625-1.25
		l-2.75-2.5l-1.875-1.5l-1.375-2.75c0,0,0.625-1,1-1.5s1.375-4,1.375-4s1.875-1.125,2.375-1.5s2.125-1.625,2.125-1.625
		s0-2.25-0.5-2.625s-2.125-2.875-2.125-2.875l-2-2.125l-3.25-1.75l-2-1.375c0,0-0.25-3.875-0.375-4.375s-1-1.625-1.25-2.125
		s-1-2.25-1-2.25s2.125-0.319,2.625-1.035s2.5-1.215,2.625-1.715s0.75-4.875,0.75-4.875l-1-3.125l0.25-4.125l3.375-5.625
		c0,0,2.125,0.625,2.5,0.75s3.75,0.625,3.75,0.625l4.75,0.375l2.625-1.875l1.375-2.875l2.375-2.5l3-2.875l1.875-2.875l2.625-2.375
		c0,0,2-1.875,2.375-2s7.125-4.875,7.125-4.875l6.75-5.75l1.25-3.625l1.125-2.375l1.875-1.875l1.875-2.125l-3.125-1.875l-3.875-1.25
		l-1.625,1.25l-2.625,0.25l-2.125-1.25l-1-2.25l0.125-4.125l-1.25-2.375l-3.75-1.25l-4.125,0.5l-5.75,0.375l-4,2l-4.5,2.125
		l-2.625,4.25l-2.875,2.875l-2.25,0.875l-1.625-1.125l-1.625-1.5l-3.625,0.375l-2.625,1.5l-4,1.25l-6.625-0.375l-3.625-1.25
		l-7.25-2.125l-3.75-1.25l-3.5-0.75l-4.875-2.125l-2.125-1.125v-4.875L150.952,156.231z"/>
</g>
<g id="Layer_7">
	<path id="zone_5" fill="none" stroke="#000000" stroke-miterlimit="1" d="M191.888,214.565c0,0,1.167,4.5,1.167,5.167s0,4.833,0,4.833
		l-2,1.167c0,0-3.333,1-3.333,1.5s1,3.5,1,3.5l0.667,6.167l3.667,2.5h3.167l3.833,7l-1.333,2.167l-3.833,2.167
		c0,0-2,3.166-1.667,3.833s0.667,3,0.667,3l2.667,2.833l3.5,3.667l4.167,1.667c0,0,3.167,3.666,3.667,3.833s0,6.833,0,6.833
		l-2.667,2h-4.333l-2.972,1.667l-0.861,3.333l9,5.333l7,6.334l6.333,4.333l5.5,3.667l4.833,3.166c0,0,1.667,0.833,2.167,1
		s10.833,0,10.833,0l2.333-2l3.833-1.333h4.5l1.167-3.167l1.5-2.333l3-1.167c0,0,4.667-0.167,5.167,0s4.5-1,4.5-1l-1.5-2.833
		l-4.667-2c0,0-1.667-1.834-1-1.667s4.5-4,4.5-4l2.667-2.666c0,0,3.5-0.834,4.5-0.667s4.833-0.833,4.833-0.833l3.5-1.5l1.5-2.5
		l-1.167-3.167c0,0-1.167-2.166-0.667-2.333s1-4.667,1-4.667s-0.167-3.666,0.833-3.833s2.833-2.593,3.333-2.63s1-4.037,1-4.037
		l-2.667-3.167l1-3.166l3-1.334c0,0,2.333-2,2.833-2s0-4,0-4l-4.667-3.333c0,0-2.5-2.834-3-3.167s-4.333-2.833-4.333-2.833
		l-1.667-3.167l-2.667-3.5l-1.667-3.5l1.333-3.667l-0.5-3.167c0,0,2.833-1.333,3.833-1.167s3.667-1.167,3.667-1.167l-1.833-3
		l1.5-2.167c0,0,4.833-1.5,5.333-1.333s6-2.833,6.5-3s2.333-4.667,2.333-4.667l1-3.833c0,0-11.333-6.167-11.5-5.667
		s-6.167-3.167-6.167-3.167h-18.5l-3.5-2.167l-1.167-2.167l-1-5.5l-2.833-3.333l-3.333-2.667l-6.5-1.667l-1.833,3
		c0,0-2.167,3.667-2,4.167s-6,7.167-6,7.167l-10.333,7.167l-5,6l-5.333,5.167l-2,3.667l-2.833,2.333c0,0-4.5,0.333-5.333,0.5
		s-3-0.5-3-0.5l-3.167-1.333l-2.5,3L191.888,214.565z"/>
</g>
<g id="Layer_8">
	<path id="zone_6" fill="none" stroke="#000000" stroke-miterlimit="1" d="M297.054,197.232l-2.333,5.667l-4.333,3.833l-6,1.667l-2.833,1.167
		l-2,1.333c0,0-1.167,1.333,0,1.833s1.833,2.167,1.833,2.167l-1.5,1.167c0,0-3.667,0.333-3.5,0.833s-2,2.667-1.667,3.167
		s-0.035,5.5-0.035,5.5s2.202,5,2.702,5.333s4.5,4.833,4.5,4.833l6,5.167l3.333,4.667l5.833,0.833l6.833,1.333l4.167,4.334
		l4.667,1.333l4,1.167l3.333,3.5l1.833,1.5l5.833,1l3.5,2.833l3,2.833l1,3.167l2,1.667l3.167,0.833l3.667-2.167l2.333-4l2.5-6.833
		l5.5-8l1-3.833l-1.833-3.334l-5-11.333l0.333-2.833l2.833-5.5l2.833-3.087c0,0,2-5.413,2.167-5.913s0.833-4.333,0.833-4.333
		l2.833-2.667v-3.167l-2.667-3.333l-0.667-3.5l8-5l3.333-4l3-1.333l6-1.167l2.833-2.333l4.333-2.667l5.5-1.5l5.167-2v-2.5l1-3
		l-0.667-2.5l1.667-3.167l-2.667-2.833l-4.333-5.5l-1.5-2.833l-1.5-2.667l2.833-3.833l-0.667-2c0,0-2.833-1.333-3.5-1.5
		s-2-2.667-2-2.667s-3-1.333-3.5-1.333s-3.166,0.5-3.833,0s-4.167-1.667-4.167-1.667l-3.833-1.667l-6.333,2l-4,2.833l-8.667,1.833
		c0,0-3.833,1.167-3.833,1.667s-1.5,3.833-1.833,4.333s0.667,4.667,0.667,4.667s-3.167,3.333-3.167,3.833s-1.5,4.333-1.5,4.333
		l-0.333,5l-2.833,4.333l-3.833,6l-2.833,5.667l-2.333,4.5c0,0-1.833,3.167-2.333,3.333s-3.833,1.333-3.833,1.333l-7.333,2.833
		l-8.667,1l-5.167-0.833L297.054,197.232z"/>
</g>
<g id="Layer_9">
	<path id="zone_7" fill="none" stroke="#000000" stroke-miterlimit="1" d="M291.721,247.231l-3.083,2.042l-2.625,1.125l-1.5,2.75
		c0,0-0.875,2,0,2.25s2.25,2.75,2.25,2.75l-0.75,2.625l-3.25,3.75c0,0-1,3-1,3.5s-0.875,5.875-0.875,5.875s1.75,3,2,3.5
		s-2,2.5-2,2.5l-4.125,1.375l-4.625,1.25c0,0-3.625,0.5-3.625,0.875s-3,3.25-3,3.25s-3.875,3.375-3.5,3.75s3.75,2.625,4.125,2.75
		s2.375,2.875,2.375,2.875l-2,1.125h-5.375l-4.625,1.5l-2.625,2.875c0,0-0.25,2.75,0,3s2.375,4.125,2.375,4.125
		s-0.375,3.125-0.125,3.75s1.625,4.25,1.625,4.25l0.25,4.5l2,3c0,0,2.75,0.375,3.25,0.625s3.75,0.875,3.75,0.875s2.5-0.75,3.375,0
		s5,1.75,5,1.75s3.375,1.75,3.875,1.875s4.75,0,4.75,0s7.542,1.25,7.708,1.375s4.542,0.625,5.417,0.875s5.125,2.5,5.125,2.5l3,4.875
		l3.5,3.625c0,0,2.125,0.5,2.75,0s3.5-2.5,3.5-2.5l1.625-2.75l1.125-2.125v-3.25l-1.625-3c0,0,3.875-2.125,4.625-2s6.5,1.25,7,1.25
		s5.375,0.125,5.875,0.125s6.25,1.375,6.625,1.625s6,2.625,6,2.625l4.25,2.125c0,0,3.625,2.625,4.125,2.75s2.75,1.5,3.375,1.75
		s4,0.5,4,0.5s2.125-1,2.25-1.375s-1.5-3.875-1.5-3.875s-1.75-1.5-1.75-1.875s0-2,0.875-2.125s5.25,0,5.875,0.125
		s5.375,0.375,5.375,0.375l6.25-2.75l3.093-3.75l2.407-1.75v-3.5l2.75-3.25c0,0,1.25-4,2-4s4-2,4.75-2s1.25-2.25,2-2.25
		s4.75-0.5,4.75-0.5l3.25-1.75c0,0,4-1,4.75-1s4-1.5,4-1.5v-4.25l-4.5-3.66l-1.25,2.16l-2.5,0.5l-2-2.66l-0.5-2.59l-2.25-3.5l-4-1.5
		l-6.25,0.25l-7.407-1l-3.593-2.25l-2.75-2l-5,1.5l-4,1l-5.25,0.25l-2.75,0.75l-2-2l-1.75-1.75l-2-1.25c0,0-4.5,0-5.5,0.25
		s-6.5,1.25-6.5,1.25l-3.5-1.25l-4.431-1l-4.569,0.5l-4.25-2.5l-0.5-2.25l4.5,0.25c0,0,1.5,0.25,2.75,0.25s4.5-3,4.5-3l0.25-3.75
		l-2.681-2v-3.5l-4.569-3.25l-2.375-0.75c0,0-2.625-0.75-3-0.75s-3.25-1.25-3.25-1.25l-1.875-1.875l-5.125-3.25l-4.125-0.125
		l-6.75-5.667l-2.875-0.958h-3.25L291.721,247.231z"/>
</g>
<g id="Layer_10">
	<path id="zone_8" fill="none" stroke="#020202" stroke-miterlimit="1" d="M338.013,271.898l-1.125,2.375l-2.25,1.625h-4.5h-3.5l-2,1
		c0,0-0.25,1.75,0,2.125s2.25,0.75,2.625,1.125s4.125,0,4.625,0s5.375-0.416,6.125,0.167s4.75,1.333,5.25,1.458s3.75-1.25,4.375-1
		s5.125,0.766,5.5,1.008s2-1.992,2.875,0s2.875,3.742,3.25,3.867s2.375-1.125,2.75-1s6.125,0.125,6.625,0.25s3.875-0.75,3.875-0.75
		l2.125-1.625l5.25,0.75c0,0-0.813,0.643,2.593,2.384s6.282,2.241,6.907,2.491s4.625,0,5,0s4,0.75,4,0.75l2-0.625c0,0,1.75,1,2,2.25
		s0,3.5,0,3.5l1.375,0.875c0,0,0.625,2.375,1,2.5s1-0.25,1.5,0s1.375-0.375,1.625-0.75s0.625-0.875,1.5-1s2.5,0.5,2.5,0.5l2.25,2.25
		c0,0,2.625-0.875,3.125-0.75s0.375,0.375,0.75-1.75s-1.75-2.625-1.75-2.625l2.375-2.25l2.75-1l3.125-1.75l2.5-2.125l2.625-1
		l4,1.375l1.75,2.625l2.375,2.375l3.375,1.125l3-1.625c0,0-0.25-2.875,0-3.375s-1.125-2.5-1.125-2.5l-1.375-3.875l0.875-3.375
		l2.875-3l3.125-5.625l2.25-4.5l4.25-3l4.875-1.25l1.5-3.875l2.125-6.625c0,0,2.25-2.875,2.625-2.875s3.25-3.5,3.75-3.625
		s2.25-2.625,2.25-2.625l1.75-2l1.5-5l-1-6.75c0,0,2-1.75,2.5-2.25s1.125-3.921,1.125-3.921l2.875-2.329l1.25-3.875l-1.375-3.75
		l-5.125-1.875l-3.75-2.375l-3.625,1.5c0,0-2,2.875-3,3.25s-3.375,3.375-3.5,3.75s-4.25,1.25-4.625,1.25s-4.375-1.125-4.375-1.125
		l-5.875-1.25l-3.75-2.625l-4-0.375c0,0-1.75-0.375-1.625-0.875s-0.75-3.5-0.75-3.5l-0.125-2.875l-4.375-2l-2.875-2l-6.625-1.625
		l-3.625-1.375l-4.25-3.25l-1.25-4.125l-2.875-3.625l-2.75-2.25l-7.375-2.5l-4.875-2.875h-2.75l-3.625,1.75l-5.375,1.5l-2.125,1.625
		l-2.25,2.25l-4.75,1.5l-4.75,0.375l-1.875,1.375l-2.125,3.125l-3.875,2.75l-4.375,3.5l-1.625,2l2.875,3.75l1.25,2.5l-0.25,2.375
		l-3,3c0,0-1.5,2.875-1.25,3.25s-0.375,4.625-0.375,4.625s-3.125,3.375-3.125,3.75s-2,5.625-2,5.625l-2.875,2l0.625,2.875
		l1.375,3.625l1.625,3.375l2.125,2.75l1.625,2.25l0.375,3.875l-1.625,2.625l-2.5,2.875l-3.25,4.625l-1.25,4.625l-1.5,3.375
		l-1.875,2.375l-3.25,1.625L338.013,271.898z"/>
</g>
<g id="Layer_11">
	<path id="zone_9" fill="none" stroke="#020202" stroke-miterlimit="1" d="M384.888,320.232c0,0-0.333,1.833,0,2.333s2.5,2.334,2.5,2.334
		s2,2,2.5,2.5s2.667,2.833,2.667,2.833l2.833,1.167c0,0,3.167,0.666,3,1.166s1.667,3.667,1.667,3.667s3,2.5,3.5,2.5s6,0,6,0l5,1.333
		h6.667l4.667,2.167l5.333,2.833c0,0,2,4,2.333,4.5s1.667,5,1.667,5v8.167l-1.334,4.5l-1.5,3.5l1.833,3.167l4.5,1.833l6.5,0.667
		l4-1.667l2.333,1.667c0,0,2.666,2.334,3.333,2.5s4.167,1.5,4.167,1.5l2.833,4l0.667,2.833l3.167,1.5h2.166l1.5,3h3.167l2.667-1.166
		l3.833-0.334l3.333,2.167c0,0,0.166,4.5,0,5s0.334,2.001,1.334,2.667s5.833,2.499,6.333,2.666s4.167-0.667,5.167,0s5-2,5-2v-3.833
		l1.333-8.333l3.333-5.667l0.667-6.333l1.5-7l5.333-6.167l2-6.667v-7.167l-2.666-3.666l-4.334-2.167l1.167-3.833l4-3.334l-1.833-3
		l-10-2.5l-6.334-2.5l-3.333-4l-2-5l-1.5-8l-1.333-5l-7.834-2.333l-3.833-2.167h-9.167l-3.333,1.334l-5.667,1.666l-8-0.5l-1.166-3.5
		l-2.834-1.833l-6.5,0.667l-1-1.834l-1.666-4.333l0.166-2.667l-1-3l-2.167-2.833h-3.5l-4.167,1.833c0,0-4,2.167-4.167,2.667
		s-4,3-4,3s-0.167,1.667,0.333,2.667s0.333,2.5,0.333,2.5s-3.167,0-3,0.5s-0.333,4.833-0.333,4.833l-3.833,1.5l-3.667-0.167
		c0,0-4.333,1.667-4.333,2.167s-4.667,1-4.667,1l-3,2.167l-3,1.833c0,0-2.167,3.167-2,3.667s-2.333,2.5-2.333,2.5L384.888,320.232z"
		/>
</g>
<g id="Layer_12">
	<path id="zone_10" fill="none" stroke="#020202" stroke-miterlimit="1" d="M474.388,239.232l-2.875,1.416l-1.125,1.875l-2.5,3.125l-2.625,2.25
		l-2.625,2.375v3.5c0,0-1.5,3.875-1.75,4.625s-2.625,2.5-2.625,2.5l-4.125,1.875l-3.875,2.375c0,0-2.5,5.125-2.75,6.375
		s-2.875,4-2.875,4s-2,0.375-2.375,2.75s-1.875,2.5,0,5.75s2.125,4.625,2.125,4.625l-1,2.5l-1.5,1.25h-2.75l-1.5-2l-2.625-2
		c0,0-0.625,2.125-0.625,3.125s0.875,3.375,1.25,3.625s1,0.375,1.375,2.25s-0.625,2.75-0.25,2.875s3.375,0.375,4.625,0
		s0.25,0.521,2.25,0.198s2.75,0.071,2.75,0.071l1,1.73c0,0,0.875,1.625,1.375,2.125s0,1,3.125,1.25s5.75,0.125,5.625,0
		s0.75-0.75,3.125-2s5.25-1.375,5.25-1.375l4.75,0.25l7.375,0.625l5.375,2c0,0,5.375,1.625,5,9.5s2.625,7.625,2,9
		s5.5,7.375,11.375,7.875s7.375,2.375,9.75,3.375s2.5,2.5,2.5,2.5l4.25,1.375h9.125h5c0,0,0.25-2.125,1.625-3.625
		s4.75-1.5,5.625-1.875s2.5-1.75,2.625-2.5s-1-7.125,0-8.75s2.125-3.125,4.625-6.5s5.875-7.875,7.25-9.5s3.375-5,3.375-5l4.25-2.625
		c0,0,1.5-1.625,1.125-3.875s1-9.125,1-9.125s0-1.25-2.25-1.625s-5.625-0.375-5.625-0.375l-1.5-2.125v-6.625
		c0,0-4.375-3.625-4.625-5s-2-8.5-2-8.5l-2.125-4.125l-3.375-2l-3.375-1.5l-3.375-2l-2.625-3l-1.125-2.5l-0.75-4.5
		c0,0,1.5-5.875-5.75,1.625s-3.375,3.25-3.375,3.25s-2.25-2.375-5-2.375s-7-0.75-7-0.75l-3.75-1.625l-3.375,1
		c0,0-1.5,2.125-2.125,2.5s-3.625-0.875-3.625-0.875s-4-0.375-4.125,0s-4.875,0.625-5.375,0.5s-4.625-3.375-4.625-3.375
		s-3.75,0.875-4.125,1.125s-3.5-1.75-3.5-1.75L474.388,239.232z"/>
</g>
<g id="Layer_13">
	<path id="zone_11" fill="none" stroke="#020202" stroke-miterlimit="1" d="M513.138,336.398l-2.25,1.875c0,0-2.25,0.375-2.75,2.5
		s-1.125,3.125,0,4.25s3.75,1.5,4.375,2.5s2.625,3.75,1.75,8.625s-0.912,5.5-3.269,8.375s-5.606,7.75-5.481,12.375
		s1.125,4.5-1.25,8.25s-3.75,4.5-4.125,9.25s0,2.75,0,3.25s-1.459,2.25-0.167,2.375s3.417-1,3.792-1s4.375-1.5,4.75-1.375
		s7.625-3.75,7.625-3.75l5-1.875c0,0,9.875,0.77,10.375,8.01s1,11.865,1,11.865s1,2.25,4.375,4.125s1.75,1.625,1.75,1.625
		s3.25,0.146,3.625,0.011s0.25,2.739,0.625,2.989s1.75-0.375,2.25,0s5-3,5-3s4.625-4.625,5-4.375s6.625-0.5,11.25,2.25
		s6.375,2.25,6.375,2.25s0.875-1.75,2.625-7.125s1.75-5.375,1.75-5.375l-2-3.625l-1.625-2.875l-0.125-9.375c0,0-1.75-3.25-1.125-3.5
		s1.75-2.625,5.5-1.875s6-0.5,6-0.5s0.375-2.5,4.125-4.375s5-4,3.625-9s-1.375-5.625-1.375-5.625s1.75-3,3.625-5.5
		s1-2.375-1.375-4.625s-5.625-3.125-9.125-3.25s-4.625-0.5-4.625-0.5s1.875-3.625,2.375-4.625s0-6,0-6l-1.25-1.875l2.25-5.25
		l4.5-5.75l6.625-6l8.5-9.25l6.5-1.75l2.75-6l2-4.75l-1.5-6.5l0.25-10.5l-5.25-6.25c0,0-0.75,2.25-4.25,3.75s-9.5-0.5-9.5-0.5
		l-5.5-1.5l-3.25-4.25l-6.25-2l-3-5.75c0,0,0.5-4.5,1.25-4.75s-1.75-5.5-1.75-5.5s-4.75,0.75-6.75,5.5s-0.75,12.25-0.75,12.25
		s2,5.5,2,6.25s-3.25,3.25-3.75,4s-2.75,4.25-2.5,5s0.25,6.5,0.25,6.5l-1.5,3.5c0,0-1.701-2.5-4.976,3.75
		s-10.024,13.75-10.024,13.75l-5,8c0,0,3.5,9.25-0.75,9.75s-6-1.25-7.5,1.25s-0.5,3.03-0.5,3.03l-5.5,1.22l-8.5,0.25
		L513.138,336.398z"/>
</g>
<g id="Layer_14">
	<path id="zone_14" fill="none" stroke="#020202" stroke-miterlimit="1" d="M609.513,279.398c1.75,2.625,1.5,2.75,1.75,6.75
		s1.125,2.875,1.125,8.125s0.75,5.375-1.75,10.25s-2.625,7.125-5.625,7.5s-3.875-0.125-4.625,1.25s-5.5,5.375-5.5,5.375
		l-5.875,5.875l-6.125,7.25c0,0-2.625,4-2.625,4.625s0,4.5,0,4.5l0.625,3.75l-2,4.375c0,0-2,2.5,3,2.375s8.625,2.25,8.625,2.25
		l2.25,1.75c0,0,4.375,1,0.75,4.75s-4.5,3.875-2.875,7.25s1.125,6.375,1.25,7.25s-1.375,3.5-1.375,3.5s-1.375,0.625-4.375,2.25
		s-3.75,3.875-3.75,3.875l-3.896,0.75l-3.979-1c0,0-3.25,0.375-2.375,5s1.375,8,1.375,8l1.625,5l1.5,4.625
		c0,0-2.625,5.875-2.625,6.375s-1.375,4.625-1.375,4.625s0,2.125,3.625,1.625s6.375-1.75,6.375-1.75l3.625-0.875
		c0,0,2.25,2.152,2.875,2.701s5.125,1.174,5.125,1.174l4.125,2.625l5.625,2.375l7,4.625c0,0,3.25,2.625,3.875,2.875
		s5.25,2.125,5.875,2.375s3.875,1.625,4.375,1.25s2.125-2.625,3.375-2.5s1.875,1.125,4.25,1s3.75-2.625,4.25-2.875
		s3.625-3.625,3.625-3.625l4.75-3c0,0,2.416-0.917,2.333-4.083s0.749-7.584,1.083-7.75s0.833-3.833,2-6.833s3.167-3.749,6.417-7.083
		s8.083-5.584,8.583-8.334s1.416-5.666,1-6.666s-0.084-2.084-4.25-1.167s-7.416,2.001-10.083,2.167s-4.583,3-4.833-2.5
		s-0.334-9.083-0.334-9.083l-0.583-5.417c0,0-4.333-2.249-3.583-7.999s0.75-7.917,0.75-7.917l0.833-4.666
		c0,0,1.249-1.583,1.583-1.75s0.666-1.833,0.75-2.25s-1.249-2.751-1.166-3.084s-2.5-4.5-2.5-4.5l-0.667-4.917
		c0,0,1.501-3.75,1.917-4s2.166-6.666,2.166-6.666l0.917-7.167l3.333-11l-0.75-5.666v-5.5c0,0-1.5-6.751-1.333-7.001
		s-0.417-5.666-0.167-5.666s-7.166-1.252-7.166-1.252l-3.25-3.25l-3.5-3.5h-6.5l-2.25-5.25l-3.5-4.25c0,0-4.75-1.5-4.75,0
		s-2.5,3.25-2.5,3.25l-4.75-3.917c0,0-2.75,1.667-2.5,2.667l-0.25,6.25l-2.5,4.25L609.513,279.398z"/>
</g>
<g id="Layer_15">
	<path id="zone_15" fill="none" stroke="#020202" stroke-miterlimit="1" d="M648.888,278.648v7.25l1.75,6.25c0,0-0.25,4.25,0,5.25
		s-0.875,7.25-0.875,7.25l-0.875,6.5l-2.25,11.5l-3.75,7c0,0-0.25,2.25,0,3.75s3.838,11.5,3.838,11.5l-1.338,3.5l-2.611,3.25v6.75v7
		l3.949,5v15c0,0,0.734,1,3.948,1s5.464,0,5.464,0s4.75-5.25,8.25-3s2.75,4.75,2.75,4.75l-1.75,4l-3.25,3.5l-10,8.25
		c0,0-2,3.25-1.75,4s-2,7.25-2,7.25s-1.5,5.25-1.25,6.25s-1.75,4.75-1.75,4.75s3.75-2,4.5-2.25s4-3.75,4-3.75l1.104,3.25l1.896,7.5
		l4.25,7h7.25l3.5,1.5c0,0,3.5,4.25,4.75,4.5s4.25,0,4.25,0l3.75-6.5l8.25-0.25c0,0,4.75,1.25,5.5,1.5s6,1.75,6,1.75l5.5-2.25v-16.5
		v-11.5l2.25-5.25c0,0,1.25,0.25-1.75-6s-7.25-8.5-7.25-8.5s-2,2.25-3.75-2.75s-4.75-6.75-4.25-9.25s1.75-3,5-6.5
		s8.75-7.75,8.75-7.75s5.75-1.639,6.5-2.819s3.25-3.431,2.75-6.431s-0.75-3-5-4.75s-13.5-5-13.5-5l-7.5-6.25c0,0,0.25-5.5,1.25-11
		s0-5.75,3-10.75s4.75-6.75,4.5-8.5s-1-3.75,1-3.75s2.75,3.5,4.5,2s2.75-4.75,2.75-4.75l1.75-4l2-5l-0.75-2.25
		c0,0-3.5,0.25-6.25,0.75s-5-1.5-5-1.5s-1-1.75-5.5,0s-7.25,3.75-9,3.25s-1.25-2-0.75-3.5s-0.295-3.5-5.147-1
		s-8.603,2.25-8.603,2.25l-6.5-0.5l-5-3.5l-4.75-5.5l-4.5-3H648.888z"/>
</g>
<g id="Layer_16">
	<path id="zone_16" fill="none" stroke="#020202" stroke-miterlimit="1" d="M712.888,292.898l-4,8.75l-3.25,4.25l-3.75-1.25l-1.75,3.5l-3.5,8.75
		l-4,14.5c0,0-3,7.5,4.25,11.75s10,4.75,12.5,6s15.75,5,4.75,12.25s-12.25,8.5-12.25,8.5l-5.25,6.5c0,0-2.5,2.75,1.75,9
		s3.691,3.75,6.846,6.25s6.404,4.25,6.404,9.75s-1.75,30.25-1.75,30.25l-0.25,6.25h5.75c0,0,4.5-0.75,5-1.5s-1-3,0-3s4,0.5,4,0.5
		s1.75,1.25,2.5,0.75s3.25-2.25,3.25-2.25l3.5,4.25l3.5,3.5c0,0,2.5,2.25,3.5,2.25s5-3.25,5-3.25s3.5-4.75,4.25-8.25
		s-1.25-0.5,1.25-8s4.75-6,5.75-13.5s2.75-12-1.5-21s-9.5-16-9.5-16s-6.75-1.25-5.25-11.25s3.25-13.25,3.25-13.25l2.5-4.75
		c0,0-3.75-5.5-3-7.25s1.75-1.5,2.5-4s-2.5-3-1.75-5.75s5-9.5,5-9.5l4.25-8.75l3.25-9.25l1.47-10c0,0-1.22-3-9.47-4s-14-2-14.75-2
		s-6.25,0-6.25,0s-1.75,1.25-4.75,5.5s-7,4.5-7,4.5L712.888,292.898z"/>
</g>
</svg>
